HIERARCHY
ROOT ZeroOut_JNT
{
  OFFSET 0 0 0
  CHANNELS 6 Xposition Yposition Zposition Zrotation Xrotation Yrotation
  JOINT SpineFinal_1_JNT
  {
    OFFSET 0 59.8141 -42.9993
    CHANNELS 6 Xposition Yposition Zposition Zrotation Xrotation Yrotation
    JOINT l_legIKClavicle_Root_JNT
    {
      OFFSET -0.323145 -1.55994 9.59625
      CHANNELS 6 Xposition Yposition Zposition Zrotation Xrotation Yrotation
      JOINT l_legBlendRoot_JNT
      {
        OFFSET 16.1374 0 0
        CHANNELS 6 Xposition Yposition Zposition Zrotation Xrotation Yrotation
        JOINT l_legBlendMiddle_JNT
        {
          OFFSET 27.0969 0 0
          CHANNELS 6 Xposition Yposition Zposition Zrotation Xrotation Yrotation
          JOINT l_legBlendEnd_JNT
          {
            OFFSET 24.8414 0 0
            CHANNELS 6 Xposition Yposition Zposition Zrotation Xrotation Yrotation
            JOINT l_legBlendTip_JNT
            {
              OFFSET 6.77858 0 0
              CHANNELS 6 Xposition Yposition Zposition Zrotation Xrotation Yrotation
              End Site
              {
                OFFSET 0 0 0
              }
            }
          }
        }
      }
    }
    JOINT SpineFinal_2_JNT
    {
      OFFSET -19.5366 0.0587492 -0.00256357
      CHANNELS 6 Xposition Yposition Zposition Zrotation Xrotation Yrotation
      JOINT SpineFinal_3_JNT
      {
        OFFSET -19.4679 1.47333 -0.00136182
        CHANNELS 6 Xposition Yposition Zposition Zrotation Xrotation Yrotation
        JOINT SpineFinal_4_JNT
        {
          OFFSET -18.2335 5.20609 0
          CHANNELS 6 Xposition Yposition Zposition Zrotation Xrotation Yrotation
          JOINT SpineFinal_5_JNT
          {
            OFFSET -17.3574 8.01768 -1.82773e-005
            CHANNELS 6 Xposition Yposition Zposition Zrotation Xrotation Yrotation
            JOINT SpineFinal_6_JNT
            {
              OFFSET -19.144 8.35871 0
              CHANNELS 6 Xposition Yposition Zposition Zrotation Xrotation Yrotation
              JOINT SpineFinal_7_JNT
              {
                OFFSET -16.3943 7.24542 0
                CHANNELS 6 Xposition Yposition Zposition Zrotation Xrotation Yrotation
                JOINT SpineFinal_8_JNT
                {
                  OFFSET -19.3877 2.40349 0
                  CHANNELS 6 Xposition Yposition Zposition Zrotation Xrotation Yrotation
                  JOINT head_JNT
                  {
                    OFFSET -13.796 -11.6756 0
                    CHANNELS 6 Xposition Yposition Zposition Zrotation Xrotation Yrotation
                    JOINT l_hornRoot_JNT
                    {
                      OFFSET -15.825 14.8229 15.3879
                      CHANNELS 6 Xposition Yposition Zposition Zrotation Xrotation Yrotation
                      JOINT l_hornMid_JNT
                      {
                        OFFSET 6.55118 0 0
                        CHANNELS 6 Xposition Yposition Zposition Zrotation Xrotation Yrotation
                        JOINT l_hornEnd_JNT
                        {
                          OFFSET 6.73503 0 0
                          CHANNELS 6 Xposition Yposition Zposition Zrotation Xrotation Yrotation
                          End Site
                          {
                            OFFSET 0 0 0
                          }
                        }
                      }
                    }
                    JOINT headJend_JNT
                    {
                      OFFSET 1.34858 -27.5886 0
                      CHANNELS 6 Xposition Yposition Zposition Zrotation Xrotation Yrotation
                      End Site
                      {
                        OFFSET 0 0 0
                      }
                    }
                    JOINT r_hornRoot_JNT
                    {
                      OFFSET -15.825 14.8229 -15.3879
                      CHANNELS 6 Xposition Yposition Zposition Zrotation Xrotation Yrotation
                      JOINT r_hornMid_JNT
                      {
                        OFFSET -2.40814 5.46468 -2.69372
                        CHANNELS 6 Xposition Yposition Zposition Zrotation Xrotation Yrotation
                        JOINT r_hornEnd_JNT
                        {
                          OFFSET -2.40922 6.0083 -1.85921
                          CHANNELS 6 Xposition Yposition Zposition Zrotation Xrotation Yrotation
                          End Site
                          {
                            OFFSET 0 0 0
                          }
                        }
                      }
                    }
                    JOINT m_upLip_JNT
                    {
                      OFFSET 4.72477 -9.87974 0
                      CHANNELS 6 Xposition Yposition Zposition Zrotation Xrotation Yrotation
                      JOINT l_lipUpRoot_JNT
                      {
                        OFFSET 2.68891 -0.690234 4.02874
                        CHANNELS 6 Xposition Yposition Zposition Zrotation Xrotation Yrotation
                        JOINT l_lipUpEnd_JNT
                        {
                          OFFSET 0 0 -14.9226
                          CHANNELS 6 Xposition Yposition Zposition Zrotation Xrotation Yrotation
                          End Site
                          {
                            OFFSET 0 0 0
                          }
                        }
                      }
                      JOINT m_upLipRoot_JNT
                      {
                        OFFSET 0 0 3.94939
                        CHANNELS 6 Xposition Yposition Zposition Zrotation Xrotation Yrotation
                        JOINT m_upLipEnd_JNT
                        {
                          OFFSET 0 0 15.0019
                          CHANNELS 6 Xposition Yposition Zposition Zrotation Xrotation Yrotation
                          End Site
                          {
                            OFFSET 0 0 0
                          }
                        }
                      }
                      JOINT r_lipUpRoot_JNT
                      {
                        OFFSET -2.689 -0.690236 4.02875
                        CHANNELS 6 Xposition Yposition Zposition Zrotation Xrotation Yrotation
                        JOINT r_lipUpEnd_JNT
                        {
                          OFFSET 9.35075e-005 -0.000392738 14.9226
                          CHANNELS 6 Xposition Yposition Zposition Zrotation Xrotation Yrotation
                          End Site
                          {
                            OFFSET 0 0 0
                          }
                        }
                      }
                    }
                    JOINT m_DnLip_JNT
                    {
                      OFFSET 6.0207 -9.81639 0
                      CHANNELS 6 Xposition Yposition Zposition Zrotation Xrotation Yrotation
                      JOINT l_lipDn_JNT
                      {
                        OFFSET 2.71301 -0.162748 3.99146
                        CHANNELS 6 Xposition Yposition Zposition Zrotation Xrotation Yrotation
                        JOINT l_lipEnd_JNT
                        {
                          OFFSET 0 0 -14.9599
                          CHANNELS 6 Xposition Yposition Zposition Zrotation Xrotation Yrotation
                          End Site
                          {
                            OFFSET 0 0 0
                          }
                        }
                      }
                      JOINT m_dnLip_JNT
                      {
                        OFFSET 0 -0.0431035 3.99141
                        CHANNELS 6 Xposition Yposition Zposition Zrotation Xrotation Yrotation
                        JOINT m_dnLipEnd_JNT
                        {
                          OFFSET 0 0 14.9599
                          CHANNELS 6 Xposition Yposition Zposition Zrotation Xrotation Yrotation
                          End Site
                          {
                            OFFSET 0 0 0
                          }
                        }
                      }
                      JOINT r_lipDn_JNT
                      {
                        OFFSET -2.71301 -0.162761 3.99141
                        CHANNELS 6 Xposition Yposition Zposition Zrotation Xrotation Yrotation
                        JOINT r_lipDnEnd_JNT
                        {
                          OFFSET 0 0 14.9599
                          CHANNELS 6 Xposition Yposition Zposition Zrotation Xrotation Yrotation
                          End Site
                          {
                            OFFSET 0 0 0
                          }
                        }
                      }
                    }
                    JOINT l_lid_JNT
                    {
                      OFFSET -7.85698 -6.72885 9.63956
                      CHANNELS 6 Xposition Yposition Zposition Zrotation Xrotation Yrotation
                      End Site
                      {
                        OFFSET 0 0 0
                      }
                    }
                    JOINT r_lid_JNT
                    {
                      OFFSET -7.85684 -6.72882 -9.63956
                      CHANNELS 6 Xposition Yposition Zposition Zrotation Xrotation Yrotation
                      End Site
                      {
                        OFFSET 0 0 0
                      }
                    }
                  }
                }
              }
            }
            JOINT l_FwClavicleRoot_JNT
            {
              OFFSET -0.15532 -4.55898 6.72563
              CHANNELS 6 Xposition Yposition Zposition Zrotation Xrotation Yrotation
              JOINT l_FwLegBlendRoot_JNT
              {
                OFFSET 21.051 0 0
                CHANNELS 6 Xposition Yposition Zposition Zrotation Xrotation Yrotation
                JOINT l_FwLegBlendMiddle_JNT
                {
                  OFFSET 33.1145 0 0
                  CHANNELS 6 Xposition Yposition Zposition Zrotation Xrotation Yrotation
                  JOINT l_FwLegBlendTip_JNT
                  {
                    OFFSET 29.9221 0 0
                    CHANNELS 6 Xposition Yposition Zposition Zrotation Xrotation Yrotation
                    JOINT l_FwLegBlendEnd_JNT
                    {
                      OFFSET 9.62649 0 0
                      CHANNELS 6 Xposition Yposition Zposition Zrotation Xrotation Yrotation
                      End Site
                      {
                        OFFSET 0 0 0
                      }
                    }
                  }
                }
              }
            }
            JOINT r_FwClavicleRoot_JNT
            {
              OFFSET -0.15532 -4.55898 -6.72563
              CHANNELS 6 Xposition Yposition Zposition Zrotation Xrotation Yrotation
              JOINT r_FwLegBlendRoot_JNT
              {
                OFFSET 1.1653 -12.7157 -16.7361
                CHANNELS 6 Xposition Yposition Zposition Zrotation Xrotation Yrotation
                JOINT r_FwLegBlendMiddle_JNT
                {
                  OFFSET 16.2308 -5.97551 28.2387
                  CHANNELS 6 Xposition Yposition Zposition Zrotation Xrotation Yrotation
                  JOINT r_FwLegBlendTip_JNT
                  {
                    OFFSET 26.7017 -9.19239 -9.89204
                    CHANNELS 6 Xposition Yposition Zposition Zrotation Xrotation Yrotation
                    JOINT r_FwLegBlendEnd_JNT
                    {
                      OFFSET 4.44874 -7.74942 3.58114
                      CHANNELS 6 Xposition Yposition Zposition Zrotation Xrotation Yrotation
                      End Site
                      {
                        OFFSET 0 0 0
                      }
                    }
                  }
                }
              }
            }
          }
        }
      }
    }
    JOINT r_legIKClavicle_Root_JNT
    {
      OFFSET -0.323145 -1.55994 -9.59625
      CHANNELS 6 Xposition Yposition Zposition Zrotation Xrotation Yrotation
      JOINT r_legBlendRoot_JNT
      {
        OFFSET 13.2848 -5.74129 -7.13912
        CHANNELS 6 Xposition Yposition Zposition Zrotation Xrotation Yrotation
        JOINT r_legBlendMiddle_JNT
        {
          OFFSET 14.815 16.9375 15.0957
          CHANNELS 6 Xposition Yposition Zposition Zrotation Xrotation Yrotation
          JOINT r_legBlendEnd_JNT
          {
            OFFSET 23.6904 -6.58016 -3.54465
            CHANNELS 6 Xposition Yposition Zposition Zrotation Xrotation Yrotation
            JOINT r_legBlendTip_JNT
            {
              OFFSET 1.47758 -6.16068 -2.41079
              CHANNELS 6 Xposition Yposition Zposition Zrotation Xrotation Yrotation
              End Site
              {
                OFFSET 0 0 0
              }
            }
          }
        }
      }
    }
    JOINT tailRoot_JNT
    {
      OFFSET 2.82533 14.5514 0
      CHANNELS 6 Xposition Yposition Zposition Zrotation Xrotation Yrotation
      JOINT tailMid_JNT
      {
        OFFSET 7.87756 0 0
        CHANNELS 6 Xposition Yposition Zposition Zrotation Xrotation Yrotation
        JOINT tailEnd_JNT
        {
          OFFSET 6.52588 0 0
          CHANNELS 6 Xposition Yposition Zposition Zrotation Xrotation Yrotation
          End Site
          {
            OFFSET 0 0 0
          }
        }
      }
    }
    JOINT l_shoulderBkRoot_JNT
    {
      OFFSET -9.30511 7.998 11.2048
      CHANNELS 6 Xposition Yposition Zposition Zrotation Xrotation Yrotation
      JOINT l_shoulderBkMid_JNT
      {
        OFFSET 0 0 0
        CHANNELS 6 Xposition Yposition Zposition Zrotation Xrotation Yrotation
        End Site
        {
          OFFSET 0 0 0
        }
      }
    }
    JOINT r_shoulderBkRoot_JNT
    {
      OFFSET -9.30514 7.99801 -11.2048
      CHANNELS 6 Xposition Yposition Zposition Zrotation Xrotation Yrotation
      JOINT r_shoulderBkMid_JNT
      {
        OFFSET 0 0 0
        CHANNELS 6 Xposition Yposition Zposition Zrotation Xrotation Yrotation
        End Site
        {
          OFFSET 0 0 0
        }
      }
    }
  }
}
MOTION
Frames:	3
Frame Time:	0.0416667
0 0 0 0 0 -0 1.68699 64.9599 -42.971 -30.8638 8.2484 79.9668 -2.64853 -0.810668 10.7015 -67.0116 41.9517 -42.2531 16.1374 -1.46965e-006 1.27089e-006 0.599063 35.0359 65.5069 27.0969 -4.44089e-015 -1.42109e-014 5.87539e-015 2.38542e-015 -63.4079 24.8414 -3.55271e-015 1.42109e-014 2.00733 -4.09041 -55.8848 6.77858 -7.10543e-015 -1.42109e-014 1.13745e-021 0 -0 -20.0179 -2.32689 1.01673 7.56864 -11.4816 6.87201 -19.1078 3.71156 2.15008 -13.5231 -5.99614 13.1735 -19.0802 6.11875 0.837376 -17.2475 -5.60946 1.54489 -18.1147 7.29735 -1.20948 -5.87456 -2.56119 8.17565 -19.144 8.35871 -3.55271e-014 -7.07425 0 10.557 -16.3943 7.24542 0 -7.32997 -3.18055e-015 10.557 -19.3877 2.40349 -7.10543e-014 9.55844 6.36111e-015 10.6774 -13.796 -11.6756 1.42109e-014 0 0 -0.274566 -15.825 14.8229 15.3879 112.717 -2.35881 -24.301 6.55118 1.42109e-013 0 6.46191e-010 -7.59931 0.217115 6.73503 2.84217e-014 -4.26326e-014 3.18055e-015 9.54166e-015 -4.77083e-015 1.34858 -27.5886 -1.42109e-014 92.7985 9.54166e-015 -9.54166e-015 -15.825 14.8229 -15.3879 -9.54166e-015 -6.36111e-015 2.54444e-014 -2.40814 5.46468 -2.69372 -35.8916 -1.6509 -12.1103 -2.40922 6.0083 -1.85921 3.18055e-015 3.18055e-015 -1.59028e-015 4.72477 -9.87974 1.42109e-014 92.7985 3.50417e-015 -90 2.68891 -0.690234 4.02874 180 7.01671e-015 180 0 -1.42109e-014 -14.9226 1.27222e-014 3.18055e-015 -6.36111e-015 -1.42109e-014 0 3.94939 -6.36111e-015 -3.18055e-015 3.18055e-015 0 0 15.0019 -6.36111e-015 0 6.36111e-015 -2.689 -0.690236 4.02875 -6.36111e-015 -3.18055e-015 3.18055e-015 9.35075e-005 -0.000392738 14.9226 -6.36111e-015 0 6.36111e-015 6.0207 -9.81639 -1.42109e-014 92.7985 3.50417e-015 -90 2.71301 -0.162748 3.99146 180 7.01671e-015 180 -1.42109e-014 1.42109e-014 -14.9599 1.27222e-014 3.18055e-015 -6.36111e-015 0 -0.0431035 3.99141 -6.36111e-015 -3.18055e-015 3.18055e-015 0 0 14.9599 -6.36111e-015 0 6.36111e-015 -2.71301 -0.162761 3.99141 -6.36111e-015 -3.18055e-015 3.18055e-015 0 0 14.9599 -6.36111e-015 0 6.36111e-015 -7.85698 -6.72885 9.63956 34.106 19.9417 85.9622 -7.85684 -6.72882 -9.63956 -145.894 19.9417 85.9622 -3.21476 -4.3187 6.08742 38.3335 12.8957 -129.785 21.051 -6.08731e-008 -1.07694e-008 72.9057 -59.502 141.59 33.1145 8.3753e-007 -2.8019e-007 139.148 7.01671e-015 180 29.9221 -7.10543e-015 -2.84217e-014 40.4093 3.68898 -1.62663 9.62649 2.4869e-014 3.55271e-015 29.859 -1.7467e-015 90 1.57499 -4.64749 -6.47788 -38.1327 21.9366 -35.3912 1.1653 -12.7157 -16.7361 72.181 -57.2506 138.324 16.2308 -5.97551 28.2387 140.794 0.332076 179.035 26.7017 -9.19239 -9.89204 43.858 2.17478 -2.98866 4.44874 -7.74942 3.58114 29.859 -1.7467e-015 90 -4.94604 1.23737 -11.8565 -98.4435 -10.6697 27.4577 13.2848 -5.74129 -7.13912 39.0431 -6.06238 28.5163 14.815 16.9375 15.0957 -54.4842 39.6717 -33.0048 23.6904 -6.58016 -3.54465 31.8225 -0.54406 -48.0015 1.47758 -6.16068 -2.41079 3.97569e-016 -1.59028e-015 -1.78906e-015 2.82533 14.5514 -1.42109e-014 4.99157 -1.98785e-015 -11.6223 7.87756 2.13163e-014 7.10543e-015 19.1217 3.18055e-015 -12.196 6.52588 -2.84217e-014 0 -17.7087 5.70438 -17.2906 -9.30511 7.998 11.2048 -6.8505 -4.18474e-016 -90 -7.10543e-015 2.004 3.55271e-015 1.49089e-016 1.98785e-016 1.59028e-015 -9.30514 7.99801 -11.2048 173.149 4.18474e-016 -90 7.10543e-015 -3.9713 -3.55271e-015 -1.78906e-015 7.95139e-016 1.59028e-015 
0 0 0 0 0 -0 1.68965 64.9644 -42.9709 -30.8638 8.2484 79.9668 -2.64853 -0.810668 10.7015 -67.0116 41.9517 -42.2531 16.1374 -1.46964e-006 1.2709e-006 0.599063 35.0359 65.5069 27.0969 8.88178e-015 -1.42109e-014 5.87539e-015 2.38542e-015 -63.4079 24.8414 6.21725e-015 -7.10543e-015 2.00733 -4.09041 -55.8848 6.77858 -7.10543e-015 -1.06581e-014 1.13745e-021 0 -0 -20.018 -2.32298 1.01192 7.55502 -11.4827 6.85838 -19.1077 3.70977 2.15204 -13.5231 -5.99614 13.1735 -19.0813 6.12037 0.836912 -17.2475 -5.60946 1.54489 -18.1166 7.29526 -1.20907 -5.87456 -2.56119 8.17565 -19.144 8.35871 -4.61853e-014 -7.07425 1.59028e-015 10.557 -16.3943 7.24542 2.84217e-014 -7.32997 3.18055e-015 10.557 -19.3877 2.40349 -7.81597e-014 9.55844 6.36111e-015 10.6774 -13.796 -11.6756 2.84217e-014 -3.2074e-015 -6.36111e-015 -0.241531 -15.825 14.8229 15.3879 112.717 -2.35881 -24.301 6.55118 1.7053e-013 1.42109e-014 6.46198e-010 -7.59931 0.217115 6.73503 2.84217e-014 -7.10543e-014 -1.76556e-031 3.18055e-015 3.18055e-015 1.34858 -27.5886 0 92.7985 0 -1.27222e-014 -15.825 14.8229 -15.3879 -1.27222e-014 -1.27222e-014 9.54166e-015 -2.40814 5.46468 -2.69372 -35.8916 -1.6509 -12.1103 -2.40922 6.0083 -1.85921 -4.77083e-015 6.36111e-015 1.59028e-015 4.72477 -9.87974 -2.84217e-014 92.7985 3.50417e-015 -90 2.68891 -0.690234 4.02874 180 7.01671e-015 -180 0 -1.42109e-014 -14.9226 -3.18055e-015 3.18055e-015 -3.18055e-015 0 2.84217e-014 3.94939 -9.54166e-015 3.18055e-015 -0 0 0 15.0019 3.18055e-015 6.36111e-015 3.18055e-015 -2.689 -0.690236 4.02875 -9.54166e-015 3.18055e-015 -0 9.35075e-005 -0.000392738 14.9226 3.18055e-015 6.36111e-015 3.18055e-015 6.0207 -9.81639 -4.26326e-014 92.7985 3.50417e-015 -90 2.71301 -0.162748 3.99146 180 7.01671e-015 -180 0 -1.42109e-014 -14.9599 -3.18055e-015 3.18055e-015 -3.18055e-015 2.84217e-014 -0.0431035 3.99141 -9.54166e-015 3.18055e-015 -0 0 0 14.9599 3.18055e-015 6.36111e-015 3.18055e-015 -2.71301 -0.162761 3.99141 -9.54166e-015 3.18055e-015 -0 0 1.42109e-014 14.9599 3.18055e-015 6.36111e-015 3.18055e-015 -7.85698 -6.72885 9.63956 34.106 19.9417 85.9622 -7.85684 -6.72882 -9.63956 -145.894 19.9417 85.9622 -3.21476 -4.3187 6.08742 38.3335 12.8957 -129.785 21.051 -6.04562e-008 -8.77988e-009 72.9057 -59.502 141.59 33.1145 8.3753e-007 -2.8019e-007 139.148 7.01671e-015 180 29.9221 -1.42109e-014 -7.10543e-015 40.4093 3.68898 -1.62663 9.62649 2.4869e-014 1.06581e-014 29.859 -1.7467e-015 90 1.57499 -4.64749 -6.47788 -38.1327 21.9366 -35.3912 1.1653 -12.7157 -16.7361 72.181 -57.2506 138.324 16.2308 -5.97551 28.2387 140.794 0.332076 179.035 26.7017 -9.19239 -9.89204 43.858 2.17478 -2.98866 4.44874 -7.74942 3.58114 29.859 -1.7467e-015 90 -4.94604 1.23737 -11.8565 -98.4435 -10.6697 27.4577 13.2848 -5.74129 -7.13912 39.0431 -6.06238 28.5163 14.815 16.9375 15.0957 -54.4842 39.6717 -33.0048 23.6904 -6.58016 -3.54465 31.8225 -0.54406 -48.0015 1.47758 -6.16068 -2.41079 3.97569e-016 -1.59028e-015 -1.78906e-015 2.82533 14.5514 7.10543e-015 4.99157 -1.98785e-015 -11.6223 7.87756 -2.13163e-014 -1.42109e-014 19.1217 3.18055e-015 -12.196 6.52588 1.42109e-014 2.13163e-014 -17.7087 5.70438 -17.2906 -9.30511 7.998 11.2048 -6.8505 -4.18474e-016 -90 0 2.004 0 1.49089e-016 1.98785e-016 1.59028e-015 -9.30514 7.99801 -11.2048 173.149 4.18474e-016 -90 7.10543e-015 -3.9713 -3.55271e-015 -1.78906e-015 7.95139e-016 1.59028e-015 
0 0 0 0 0 -0 1.69066 64.9663 -42.9709 -30.8617 8.2476 79.9661 -2.64853 -0.810668 10.7015 -67.0116 41.9517 -42.2531 16.1374 -1.46961e-006 1.27093e-006 0.592263 35.033 65.4999 27.0969 7.99361e-015 -2.84217e-014 3.71203e-015 1.19271e-015 -63.3892 24.8414 8.88178e-016 0 2.01041 -4.08827 -55.8919 6.77858 -7.10543e-015 -1.42109e-014 -1.89576e-022 4.7394e-022 3.18055e-015 -20.0178 -2.31466 1.00569 7.52846 -11.4843 6.84104 -19.108 3.70621 2.1539 -13.5197 -5.99903 13.18 -19.0835 6.1234 0.836092 -17.2462 -5.61105 1.54443 -18.12 7.29135 -1.20839 -5.86357 -2.56192 8.17787 -19.144 8.35871 -4.61853e-014 -7.07425 0 10.557 -16.3943 7.24542 7.10543e-015 -7.32997 3.18055e-015 10.557 -19.3877 2.40349 -4.9738e-014 9.55844 6.36111e-015 10.6774 -13.796 -11.6756 1.42109e-014 -9.81145e-018 -3.18055e-015 -0.176747 -15.825 14.8229 15.3879 112.717 -2.35881 -24.301 6.55118 1.42109e-013 1.42109e-014 6.46195e-010 -7.59931 0.217115 6.73503 2.84217e-014 -7.10543e-014 -1.05934e-030 6.36111e-015 9.54166e-015 1.34858 -27.5886 -1.42109e-014 92.7985 9.54166e-015 -2.54444e-014 -15.825 14.8229 -15.3879 2.11868e-030 -1.27222e-014 9.54166e-015 -2.40814 5.46468 -2.69372 -35.8916 -1.6509 -12.1103 -2.40922 6.0083 -1.85921 -6.36111e-015 0 -1.59028e-015 4.72477 -9.87974 1.42109e-014 92.7985 3.50417e-015 -90 2.68891 -0.690234 4.02874 180 7.01671e-015 -180 0 0 -14.9226 -3.18055e-015 0 3.18055e-015 0 0 3.94939 -3.18055e-015 0 -0 0 0 15.0019 3.18055e-015 -3.18055e-015 -3.18055e-015 -2.689 -0.690236 4.02875 -3.18055e-015 0 -0 9.35075e-005 -0.000392738 14.9226 3.18055e-015 -3.18055e-015 -3.18055e-015 6.0207 -9.81639 1.42109e-014 92.7985 3.50417e-015 -90 2.71301 -0.162748 3.99146 180 7.01671e-015 -180 0 0 -14.9599 -3.18055e-015 0 3.18055e-015 -1.42109e-014 -0.0431035 3.99141 -3.18055e-015 0 -0 0 1.42109e-014 14.9599 3.18055e-015 -3.18055e-015 -3.18055e-015 -2.71301 -0.162761 3.99141 -3.18055e-015 0 -0 0 0 14.9599 3.18055e-015 -3.18055e-015 -3.18055e-015 -7.85698 -6.72885 9.63956 34.106 19.9417 85.9622 -7.85684 -6.72882 -9.63956 -145.894 19.9417 85.9622 -3.21476 -4.3187 6.08742 38.3335 12.8957 -129.785 21.051 -5.98191e-008 -5.73057e-009 72.9874 -59.5347 141.66 33.1145 8.3753e-007 -2.8019e-007 139.259 7.01671e-015 180 29.9221 -2.13163e-014 -2.84217e-014 40.4673 3.68794 -1.6269 9.62649 2.4869e-014 1.06581e-014 29.859 -1.7467e-015 90 1.57499 -4.64749 -6.47788 -38.1327 21.9366 -35.3912 1.1653 -12.7157 -16.7361 72.1581 -57.2661 138.355 16.2308 -5.97551 28.2387 140.794 0.295606 179.141 26.7017 -9.19239 -9.89204 43.8579 2.12191 -3.01415 4.44874 -7.74942 3.58114 29.859 -1.7467e-015 90 -4.94604 1.23737 -11.8565 -98.4435 -10.6697 27.4577 13.2848 -5.74129 -7.13912 38.4845 -6.16381 28.251 14.815 16.9375 15.0957 -54.2161 39.5772 -33.1758 23.6904 -6.58016 -3.54465 32.0971 -0.346551 -47.3073 1.47758 -6.16068 -2.41079 3.51733e-032 -7.95139e-016 2.5345e-015 2.82533 14.5514 7.10543e-015 4.99157 -7.95139e-016 -11.6223 7.87756 -7.10543e-015 -7.10543e-015 19.1217 1.59028e-015 -12.196 6.52588 7.10543e-015 7.10543e-015 -17.7087 5.70438 -17.2906 -9.30511 7.998 11.2048 -6.8505 -4.18474e-016 -90 -3.55271e-015 2.004 0 5.11871e-015 -7.95139e-016 1.59028e-015 -9.30514 7.99801 -11.2048 173.149 4.18474e-016 -90 0 -3.9713 -3.55271e-015 2.98177e-015 7.95139e-016 1.59028e-015 
